<?xml version="1.0" encoding="utf-8"?>
<svg width="130" height="130" viewBox="0 0 121 130" fill="none" xmlns="http://www.w3.org/2000/svg">
  <defs>
    <linearGradient gradientUnits="userSpaceOnUse" x1="291.378" y1="58.54" x2="291.378" y2="580.89" id="gradient-0" spreadMethod="pad" gradientTransform="matrix(0.991852, 0.127392, -0.128531, 1.000725, 77.036645, -37.540586)">
      <stop offset="0" style="stop-color: rgb(97, 97, 138);"/>
      <stop offset="1" style="stop-color: rgb(10, 13, 50);"/>
    </linearGradient>
  </defs>
  <g stroke-linecap="round" transform="matrix(0.175591, 0, 0, 0.175591, 8.285851, 8.290442)" id="nrt" style="">
    <path d="M524.58,309.65 C498.91,332.07 477.93,354.17 475.34,356.92 C475.34,356.92 485.07,322.44 485.07,322.44 C485.07,322.44 524.79,308.05 524.79,308.05" stroke-opacity="1.00" style="stroke-miterlimit: 9.9; stroke-width: 4px; fill: rgb(123, 122, 149); paint-order: fill; stroke: rgb(174, 174, 221);"/>
    <path d="M498.51,360.48 C498.51,360.48 429.52,402.25 429.52,402.25 C429.52,402.25 469.66,393.03 469.66,393.03 C469.66,393.03 498.58,360.31 498.58,360.31" stroke-opacity="1.00" style="stroke-miterlimit: 8.26; stroke-width: 4px; fill: rgb(123, 122, 149); paint-order: fill; stroke: rgb(174, 174, 221);"/>
    <path d="M444.50,415.50" stroke-width="24.80" stroke-opacity="1.00" stroke-linejoin="round" style="paint-order: fill; stroke: rgb(136, 136, 136);" fill="none"/>
    <path d="M450.50,414.50 C445.78,418.12 432.27,428.51 427.26,433.54 C420.72,440.16 411.73,452.97 405.17,464.63 C403.26,467.87 400.93,470.26 400.59,469.31 C399.85,466.71 409.32,432.61 410.72,427.53 C410.72,427.53 449.57,413.55 449.57,413.55" stroke-opacity="1.00" style="stroke-miterlimit: 10.38; stroke-width: 4px; fill: rgb(123, 122, 149); paint-order: fill; stroke: rgb(174, 174, 221);"/>
    <path d="M236.65,574.20 C245.98,577.34 261.02,579.89 267.06,580.89 C255.57,575.17 247.15,570.80 240.52,565.90 C234.03,561.06 222.21,550.24 217.12,544.32 C212.66,539.09 205.33,528.03 201.57,520.59 C196.42,510.34 182.61,475.55 177.34,461.99 C181.90,466.89 192.73,478.52 199.00,485.24 C207.33,494.04 212.92,499.27 220.71,504.95 C239.92,518.58 259.93,531.45 271.28,536.64 C284.21,542.52 304.50,548.91 318.49,552.31 C321.61,553.06 325.51,554.01 326.27,554.20 C321.16,550.36 307.41,539.97 301.93,534.82 C295.98,529.18 288.37,519.74 282.12,510.73 C271.93,495.70 257.06,471.48 252.24,461.85 C249.21,455.75 245.47,445.57 244.62,443.23 C249.24,447.51 260.72,458.10 267.26,463.94 C274.89,470.54 285.14,478.28 291.63,482.24 C296.95,485.48 311.97,493.25 319.12,496.63 C327.99,500.57 339.74,503.95 346.74,505.20 C353.36,506.36 368.91,506.34 376.85,506.27 C381.27,506.15 388.86,505.91 392.02,505.78 C383.87,501.90 377.68,498.25 368.89,492.12 C362.94,488.00 348.44,477.93 345.22,475.09 C340.16,470.60 329.71,458.44 323.76,450.56 C317.92,442.56 309.86,429.91 306.78,423.30 C303.75,416.75 299.63,402.52 298.64,396.65 C297.76,391.34 297.26,377.71 296.64,372.37 C295.56,363.19 288.09,320.82 284.96,304.05 C281.49,286.60 273.96,249.46 272.28,242.31 C271.38,238.60 269.22,231.09 268.70,228.66 C268.11,225.78 268.33,221.09 269.70,217.45 C271.25,213.37 279.76,194.77 283.49,186.71 C287.91,177.53 294.91,164.93 298.27,159.95 C302.33,154.00 311.57,143.22 315.53,140.17 C317.94,138.33 322.88,134.73 325.79,132.98 C329.51,130.78 336.10,128.40 340.24,127.47 C347.96,125.77 364.45,123.06 370.51,122.74 C378.06,122.37 394.17,124.36 400.70,125.84 C404.70,126.76 419.63,131.59 425.88,135.03 C431.82,138.33 445.02,147.99 451.19,152.89 C460.42,160.53 470.54,169.81 475.88,175.64 C481.56,181.88 490.93,195.32 494.50,202.32 C501.05,215.28 508.26,236.71 509.89,244.22 C510.74,248.24 511.35,254.52 511.16,258.10 C510.91,262.08 509.40,268.85 507.74,273.31 C505.77,278.49 497.68,293.54 495.58,297.48 C501.21,292.99 514.74,282.09 520.20,276.50 C522.64,273.99 531.40,263.34 531.38,263.06 C531.24,261.87 531.33,246.71 530.34,234.97 C529.60,226.87 527.95,210.05 526.36,201.74 C524.61,192.72 520.30,179.16 517.64,172.90 C514.70,166.07 508.01,154.24 503.05,147.80 C497.79,141.01 488.31,131.25 481.41,125.04 C475.70,120.12 463.11,110.06 456.21,104.92 C449.20,99.89 435.65,90.79 429.11,86.71 C419.57,81.09 409.46,75.88 401.13,72.52 C393.65,69.53 382.61,66.36 372.66,64.19 C365.46,62.82 347.42,60.14 343.10,59.80 C335.88,59.30 320.91,58.67 313.16,58.54 C302.38,58.54 289.43,59.11 281.69,59.97 C272.65,60.99 259.67,63.53 250.54,66.11 C242.65,68.34 229.96,72.87 219.43,77.13 C212.36,80.15 196.94,87.43 194.13,88.99 C186.99,92.98 176.80,100.36 171.36,105.42 C147.35,126.80 110.81,158.79 98.28,169.40 C87.20,178.43 77.91,185.56 70.38,190.46 C68.39,191.73 64.90,193.58 64.82,193.64 C64.77,193.68 52.52,205.52 51.50,206.50 C51.52,237.29 51.47,283.79 51.40,299.52 C51.29,309.08 51.52,315.65 52.61,328.16 C55.17,351.26 63.40,409.99 65.18,422.52 C79.85,438.45 94.02,452.49 109.89,465.11 C116.18,469.85 125.45,476.84 128.43,479.08 C131.55,483.92 141.78,499.83 144.45,503.65 C149.91,511.46 160.35,524.00 166.25,529.93 C171.77,535.46 183.87,545.65 190.21,550.16 C196.57,554.64 209.79,562.42 217.02,565.92 C223.98,569.28 235.11,573.68 236.65,574.20 Z" stroke-opacity="1.00" style="stroke-width: 7px; stroke-miterlimit: 9.71; fill: url('#gradient-0'); paint-order: fill; stroke: rgb(174, 174, 221);"/>
    <path d="M 118.899 330.734 C 120.329 346.074 117.932 349.332 121.062 368.832 C 122.422 376.572 124.158 390.021 125.648 395.021 C 127.218 400.201 134.659 411.163 136.359 414.223 C 138.349 417.773 148.709 433.573 152.559 439.363 C 145.119 412.463 142.176 412.873 134.376 384.523 C 131.926 376.433 120.913 338.977 118.733 332.007" stroke-opacity="1.00" style="stroke-width: 4px; stroke-miterlimit: 8.63; paint-order: fill; stroke: rgb(38, 37, 58); fill: rgb(95, 95, 115);"/>
    <path d="M 173.158 294.361 C 173.878 301.431 175.998 321.171 176.688 325.631 C 177.908 333.361 182.882 355.234 185.112 362.244 C 188.342 371.644 190.556 372.565 194.696 380.025 C 200.406 390.175 207.928 399.191 214.238 405.091 C 216.738 407.381 220.958 411.271 222.808 413.041 C 211.718 386.521 194.428 345.171 188.498 334.171 C 183.578 324.661 175.958 298.921 174.698 294.601" stroke-opacity="1.00" style="stroke-width: 4px; stroke-miterlimit: 8.64; paint-order: fill; stroke: rgb(38, 37, 58); fill: rgb(95, 95, 115);"/>
  </g>
</svg>